<svg id="Layer_1" data-name="Layer 1" xmlns="http://www.w3.org/2000/svg" width="300" height="340" viewBox="0 0 300 340"><title>abstract</title><path d="M0,236.825c82.031,0,75.649-73.745,115-65,45,10-8.279,146.9,40,165,40,15,67.656-100,145-100" fill="none" stroke="#ff80ab" stroke-miterlimit="10" stroke-width="2"/><path d="M0,233.214c82.031,0,75.651-74.613,115.278-66.111,45.241,9.722-6.938,146.843,41.243,164.444C196.111,346.131,223,233.214,300,233.214" fill="none" stroke="#fc84ad" stroke-miterlimit="10" stroke-width="2"/><path d="M0,229.6c82.031,0,75.653-75.481,115.556-67.222,45.482,9.444-5.552,146.663,42.487,163.889C197.26,340.333,223.342,229.6,300,229.6" fill="none" stroke="#f887b0" stroke-miterlimit="10" stroke-width="2"/><path d="M0,225.992c82.031,0,75.655-76.349,115.833-68.333,45.723,9.167-4.191,146.549,43.73,163.333,38.823,13.6,64.121-95,140.436-95" fill="none" stroke="#f58bb2" stroke-miterlimit="10" stroke-width="2"/><path d="M0,222.381c82.031,0,75.657-77.218,116.111-69.444,45.964,8.889-2.831,146.437,44.974,162.778,38.428,13.135,62.943-93.333,138.915-93.333" fill="none" stroke="#f18eb4" stroke-miterlimit="10" stroke-width="2"/><path d="M0,218.77c82.031,0,75.659-78.086,116.389-70.556,46.2,8.611-1.474,146.328,46.217,162.222C200.637,323.111,224.371,218.77,300,218.77" fill="none" stroke="#ee92b7" stroke-miterlimit="10" stroke-width="2"/><path d="M0,215.159c82.031,0,75.661-78.954,116.667-71.667,46.445,8.333-.118,146.221,47.461,161.667,37.632,12.217,60.586-90,135.872-90" fill="none" stroke="#eb95b9" stroke-miterlimit="10" stroke-width="2"/><path d="M0,211.548c82.031,0,75.664-79.822,116.944-72.778,46.686,8.056,1.236,146.116,48.7,161.111,37.232,11.762,59.408-88.333,134.351-88.333" fill="none" stroke="#e799bb" stroke-miterlimit="10" stroke-width="2"/><path d="M0,207.936c82.031,0,75.666-80.69,117.222-73.889,46.927,7.778,2.588,146.013,49.948,160.556C204,305.912,225.4,207.936,300,207.936" fill="none" stroke="#e49cbe" stroke-miterlimit="10" stroke-width="2"/><path d="M0,204.325c82.031,0,75.668-81.559,117.5-75,47.168,7.5,3.939,145.913,51.191,160,36.427,10.86,57.051-85,131.309-85" fill="none" stroke="#e0a0c0" stroke-miterlimit="10" stroke-width="2"/><path d="M0,200.714c82.031,0,75.67-82.427,117.778-76.111,47.409,7.222,5.288,145.816,52.435,159.444C206.235,294.46,226.085,200.714,300,200.714" fill="none" stroke="#dda3c2" stroke-miterlimit="10" stroke-width="2"/><path d="M0,197.1c82.031,0,75.672-83.295,118.056-77.222,47.65,6.944,6.635,145.722,53.678,158.889C207.351,288.738,226.428,197.1,300,197.1" fill="none" stroke="#d9a7c5" stroke-miterlimit="10" stroke-width="2"/><path d="M0,193.492c82.031,0,75.674-84.163,118.333-78.333,47.891,6.667,7.98,145.631,54.922,158.333,35.209,9.527,53.516-80,126.745-80" fill="none" stroke="#d6aac7" stroke-miterlimit="10" stroke-width="2"/><path d="M0,189.881c82.031,0,75.676-85.031,118.611-79.444,48.132,6.389,9.324,145.544,56.165,157.778,34.8,9.089,52.337-78.333,125.224-78.333" fill="none" stroke="#d3aec9" stroke-miterlimit="10" stroke-width="2"/><path d="M0,186.27c82.031,0,75.679-85.9,118.889-80.556,48.372,6.111,10.666,145.459,57.409,157.222,34.391,8.654,51.159-76.667,123.7-76.667" fill="none" stroke="#cfb1cc" stroke-miterlimit="10" stroke-width="2"/><path d="M0,182.659c82.031,0,75.681-86.768,119.167-81.667,48.613,5.833,12.007,145.379,58.652,156.667,33.98,8.223,49.98-75,122.181-75" fill="none" stroke="#ccb5ce" stroke-miterlimit="10" stroke-width="2"/><path d="M0,179.048c82.031,0,75.683-87.636,119.444-82.778,48.854,5.556,13.346,145.3,59.9,156.111,33.567,7.794,48.8-73.333,120.66-73.333" fill="none" stroke="#c8b8d0" stroke-miterlimit="10" stroke-width="2"/><path d="M0,175.436c82.031,0,75.685-88.5,119.722-83.889,49.1,5.278,14.684,145.23,61.139,155.556,33.154,7.369,47.624-71.667,119.138-71.667" fill="none" stroke="#c5bcd3" stroke-miterlimit="10" stroke-width="2"/><path d="M0,171.825c82.031,0,75.687-89.372,120-85,49.336,5,16.02,145.162,62.383,155,32.739,6.947,46.445-70,117.617-70" fill="none" stroke="#c2c0d5" stroke-miterlimit="10" stroke-width="2"/><path d="M0,168.214c82.031,0,75.689-90.241,120.278-86.111,49.577,4.722,17.355,145.1,63.626,154.444,32.324,6.529,45.267-68.333,116.1-68.333" fill="none" stroke="#bec3d7" stroke-miterlimit="10" stroke-width="2"/><path d="M0,164.6c82.031,0,75.691-91.109,120.556-87.222,49.818,4.444,18.689,145.04,64.87,153.889C217.333,237.384,229.514,164.6,300,164.6" fill="none" stroke="#bbc7da" stroke-miterlimit="10" stroke-width="2"/><path d="M0,160.992c82.031,0,75.693-91.977,120.833-88.333,50.059,4.167,20.022,144.986,66.113,153.333,31.491,5.7,42.91-65,113.053-65" fill="none" stroke="#b7cadc" stroke-miterlimit="10" stroke-width="2"/><path d="M0,157.381c82.031,0,75.7-92.845,121.111-89.444,50.3,3.889,21.354,144.938,67.357,152.778,31.073,5.3,41.732-63.333,111.532-63.333" fill="none" stroke="#b4cede" stroke-miterlimit="10" stroke-width="2"/><path d="M0,153.77c82.031,0,75.7-93.713,121.389-90.556,50.54,3.611,22.685,144.9,68.6,152.222C220.644,220.328,230.543,153.77,300,153.77" fill="none" stroke="#b0d1e1" stroke-miterlimit="10" stroke-width="2"/><path d="M0,150.159c82.031,0,75.7-94.582,121.667-91.667,50.781,3.333,24.015,144.859,69.844,151.667,30.236,4.491,39.375-60,108.49-60" fill="none" stroke="#add5e3" stroke-miterlimit="10" stroke-width="2"/><path d="M0,146.548c82.031,0,75.7-95.45,121.944-92.778,51.022,3.056,25.345,144.829,71.087,151.111,29.817,4.1,38.2-58.333,106.968-58.333" fill="none" stroke="#aad8e5" stroke-miterlimit="10" stroke-width="2"/><path d="M0,142.936c82.031,0,75.7-96.318,122.222-93.889,51.263,2.778,26.674,144.8,72.331,150.556,29.4,3.7,37.018-56.667,105.447-56.667" fill="none" stroke="#a6dce8" stroke-miterlimit="10" stroke-width="2"/><path d="M0,139.325c82.031,0,75.706-97.186,122.5-95,51.5,2.5,28,144.788,73.574,150,28.979,3.315,35.84-55,103.926-55" fill="none" stroke="#a3dfea" stroke-miterlimit="10" stroke-width="2"/><path d="M0,135.714c82.031,0,75.708-98.054,122.778-96.111,51.745,2.222,29.333,144.778,74.818,149.444,28.56,2.93,34.661-53.333,102.4-53.333" fill="none" stroke="#9fe3ec" stroke-miterlimit="10" stroke-width="2"/><path d="M0,132.1c82.031,0,75.711-98.923,123.056-97.222,51.986,1.944,30.662,144.776,76.061,148.889C227.258,186.319,232.6,132.1,300,132.1" fill="none" stroke="#9ce6ef" stroke-miterlimit="10" stroke-width="2"/><path d="M0,128.492c82.031,0,75.713-99.791,123.333-98.333,52.227,1.667,31.992,144.781,77.3,148.333,27.723,2.173,32.3-50,99.362-50" fill="none" stroke="#99eaf1" stroke-miterlimit="10" stroke-width="2"/><path d="M0,124.881c82.031,0,75.715-100.659,123.611-99.444,52.467,1.389,33.323,144.8,78.548,147.778,27.305,1.8,31.126-48.333,97.841-48.333" fill="none" stroke="#95edf3" stroke-miterlimit="10" stroke-width="2"/><path d="M0,121.27c82.031,0,75.717-101.527,123.889-100.556,52.708,1.111,34.655,144.817,79.792,147.222,26.888,1.433,29.948-46.667,96.319-46.667" fill="none" stroke="#92f1f6" stroke-miterlimit="10" stroke-width="2"/><path d="M0,117.659c82.031,0,75.719-102.4,124.167-101.667,52.949.833,35.988,144.849,81.035,146.667,26.473,1.068,28.77-45,94.8-45" fill="none" stroke="#8ef4f8" stroke-miterlimit="10" stroke-width="2"/><path d="M0,114.048c82.031,0,75.721-103.264,124.444-102.778,53.19.556,37.323,144.889,82.279,146.111,26.058.708,27.591-43.333,93.277-43.333" fill="none" stroke="#8bf8fa" stroke-miterlimit="10" stroke-width="2"/><path d="M0,110.436C82.031,110.436,75.723,6.3,124.722,6.548c53.431.278,38.66,144.94,83.522,145.556,25.645.352,26.413-41.667,91.756-41.667" fill="none" stroke="#87fbfd" stroke-miterlimit="10" stroke-width="2"/><path d="M0,106.825c82.031,0,75.725-105,125-105,53.672,0,40,145,84.766,145,25.234,0,25.234-40,90.234-40" fill="none" stroke="#84ffff" stroke-miterlimit="10" stroke-width="2"/></svg>